<svg width="80" height="27" viewBox="0 0 80 27" fill="none" xmlns="http://www.w3.org/2000/svg">
<path d="M63.5753 13.5979L79.558 26.5077H66.5814L54.7106 16.9516H49.8701V26.5077H48.2289L41.2205 18.9958L41.2161 7.39953H40.8738L34.6071 0.68396H49.8701V10.1539H54.8598L66.5814 0.68396H79.558L63.5753 13.5979Z" fill="white"/>
<path d="M45.8893 26.3438H7.58372C5.18337 26.3438 3.31788 25.8089 1.9916 24.735C0.660967 23.6611 0 22.3197 0 20.7109V0.849731H9.45356V19.637H30.7654V0.849731H32.3917L33.0048 1.50623L39.3362 8.26575V19.6856H39.7667V19.8072L40.032 20.0909L45.8893 26.3438Z" fill="white"/>
<path d="M22.0563 2.61331C22.2348 2.58499 22.4039 2.55666 22.5683 2.52429C22.6435 2.50811 22.7186 2.46361 22.7891 2.46765C23.0522 2.47979 23.0991 2.33412 23.1226 2.16013C23.1273 2.11157 23.1602 2.06302 23.1837 2.01447C23.2025 2.01851 23.2213 2.01851 23.2401 2.02255C23.2447 2.07111 23.2494 2.12371 23.2588 2.17227C23.2682 2.21273 23.2776 2.28152 23.2964 2.28556C23.4843 2.32198 23.583 2.49193 23.8178 2.48788C25.1894 2.47169 26.5563 2.47979 27.928 2.47979C28.0501 2.47979 28.2145 2.43528 28.2145 2.62545C28.2145 2.63759 28.2803 2.66996 28.2897 2.66187C28.3225 2.63759 28.3601 2.60522 28.3648 2.57285C28.3742 2.4029 28.3648 2.23297 28.3695 2.06302C28.3695 2.02256 28.4071 1.98209 28.4306 1.94162C28.4588 1.98209 28.501 2.01851 28.5104 2.06302C28.5245 2.1399 28.5151 2.22082 28.5104 2.2977C28.501 2.47574 28.5104 2.64164 28.797 2.60523C28.8345 2.88847 28.8345 2.88847 29.1587 2.88847C29.4452 2.88847 29.7505 2.93702 30.0183 2.87632C30.2954 2.81563 30.5491 2.89252 30.8121 2.86015C30.9061 2.84801 31 2.8561 31 2.97344C30.9953 3.08674 30.9201 3.11101 30.8027 3.10696C30.2907 3.08673 29.7787 3.0665 29.262 3.05841C29.0929 3.05436 28.9191 3.10292 28.75 3.11101C28.5997 3.11911 28.4494 3.10292 28.2709 3.09483C28.2615 3.34165 28.0313 3.2931 27.834 3.28905C27.4066 3.28905 26.9744 3.28501 26.547 3.28905C26.3215 3.28905 26.1383 3.32547 26.0209 3.53184C25.9504 3.65727 25.7719 3.73819 25.6545 3.85149C25.6028 3.90004 25.5464 3.97288 25.5558 4.02952C25.5887 4.26016 25.6357 4.49486 25.7014 4.72145C25.739 4.84689 25.7343 4.91567 25.5652 4.93995C25.2975 4.98041 25.3397 5.20296 25.274 5.35268C25.2082 5.51048 25.2317 5.72089 25.1143 5.83014C24.8653 6.06078 24.5788 6.29546 24.25 6.4209C24.048 6.49778 23.7239 6.42091 23.4843 6.33998C23.0944 6.21454 22.728 6.02841 22.3476 5.87061C22.2536 5.83014 22.1644 5.79372 22.0563 5.74921C22.0328 5.82609 22.0234 5.87869 22 5.92725C21.9107 6.09315 21.9107 6.21049 22.1503 6.29546C22.3523 6.36425 22.418 6.55038 22.4086 6.72032C22.3804 7.23825 22.3429 7.75619 22.2771 8.27007C22.2583 8.41978 22.1409 8.57759 22.0234 8.69898C21.9765 8.75158 21.8074 8.75967 21.7087 8.73539C21.4645 8.68279 21.3705 8.76372 21.3799 8.97817C21.394 9.32616 21.6101 9.57299 21.859 9.81576C22.371 10.3175 22.6858 10.9164 22.9723 11.5314C23.0803 11.7661 23.1837 12.0048 23.287 12.2395C23.2964 12.2557 23.3011 12.2759 23.3152 12.2881C23.738 12.6725 23.6957 13.1459 23.6487 13.6152C23.6111 14.0158 23.5454 14.4164 23.4984 14.8211C23.4843 14.9627 23.4796 15.1124 23.5078 15.254C23.5689 15.5373 23.5689 15.8043 23.3857 16.0552C23.3669 16.0795 23.3575 16.1118 23.3575 16.1402C23.3528 16.4194 23.3293 16.6985 23.3669 16.9737C23.3857 17.1234 23.4984 17.2731 23.597 17.4066C23.8742 17.7789 24.2594 18.0338 24.762 18.1593C24.9593 18.2078 25.072 18.3333 25.0438 18.5315C25.025 18.6408 24.9734 18.7055 24.8465 18.7015C24.1983 18.6974 23.5407 18.7905 22.9065 18.5841C22.7844 18.5437 22.6435 18.5477 22.512 18.5437C22.4415 18.5396 22.371 18.5558 22.3006 18.5598C21.7322 18.6084 21.5866 18.4668 21.7651 18.0015C21.9765 17.4471 22.0281 16.8887 21.953 16.3141C21.9483 16.298 21.953 16.2737 21.9436 16.2615C21.5913 15.6951 21.6242 15.0598 21.5255 14.4488C21.4973 14.2829 21.5208 14.1251 21.6664 13.9916C21.7087 13.9551 21.7181 13.8823 21.7275 13.8257C21.7463 13.7245 21.7369 13.6193 21.7745 13.5222C21.8402 13.332 21.6946 13.2147 21.5866 13.0892C21.5678 13.065 21.4879 13.069 21.4363 13.073C21.1591 13.1095 20.9478 13.0407 20.7881 12.8303C20.4921 12.4337 20.1821 12.0453 19.8721 11.6568C19.8298 11.6002 19.7406 11.5274 19.6842 11.5354C19.3507 11.5638 19.2285 11.3736 19.1111 11.1632C19.0923 11.1268 19.0641 11.0944 19.0407 11.058C19.0125 11.0661 18.9796 11.0661 18.9749 11.0782C18.8011 11.321 18.5991 11.5557 18.4676 11.8146C18.2656 12.2031 18.0354 12.5875 18.0025 13.0245C17.9885 13.2025 17.9133 13.3522 17.716 13.4372C17.6878 13.4493 17.6549 13.4696 17.6362 13.4939C17.4107 13.7933 17.1852 14.0887 16.9691 14.3921C16.9363 14.4367 16.9128 14.4974 16.9222 14.5459C17.0114 14.9141 16.8376 15.2297 16.6732 15.5494C16.5182 15.8569 16.3867 16.1725 16.2223 16.48C16.1753 16.5691 16.0579 16.6298 15.9733 16.6985C15.9357 16.7309 15.87 16.7511 15.8512 16.7876C15.7384 17.0222 15.5975 17.2529 15.5459 17.4957C15.4895 17.7506 15.5177 18.0217 15.5271 18.2847C15.5318 18.3899 15.5975 18.4911 15.6351 18.5922C15.7197 18.8431 15.6351 18.9807 15.3486 18.9928C15.0057 19.009 14.6628 18.9928 14.3246 18.9928C14.0944 18.9928 14.0333 18.8714 14.0098 18.7015C13.9629 18.3616 14.0944 18.046 14.1883 17.7223C14.2823 17.3905 14.3903 17.0587 14.4749 16.7228C14.4937 16.65 14.4514 16.565 14.4279 16.4841C14.3527 16.2251 14.348 15.9662 14.5031 15.7315C14.6909 15.4482 14.8272 15.1609 14.8741 14.8211C14.9117 14.5621 15.1184 14.3153 15.2687 14.0684C15.4096 13.8378 15.574 13.6153 15.7384 13.3927C15.8747 13.2025 15.9263 13.0204 15.8888 12.7817C15.8465 12.5147 15.9122 12.2314 15.9545 11.9563C16.0015 11.6528 16.0814 11.3534 16.1424 11.0499C16.1518 11.0135 16.1471 10.9771 16.1377 10.9406C16.086 10.7788 15.9592 10.6048 15.9874 10.4551C16.025 10.2447 15.9169 10.0464 15.9686 9.84408C16.0015 9.7146 16.0203 9.57703 16.2317 9.56489C16.2598 9.56489 16.3068 9.47991 16.3021 9.43945C16.2692 9.12788 16.2129 8.82037 16.1847 8.5088C16.1612 8.25793 16.1471 8.00301 16.1612 7.74809C16.1659 7.67526 16.288 7.59838 16.3632 7.53364C16.4102 7.49317 16.4759 7.47294 16.5793 7.42034C16.3867 7.37583 16.2551 7.32728 16.1142 7.31109C15.9357 7.29086 15.9028 7.20184 15.9169 7.06831C15.9592 6.73651 16.0015 6.40876 16.0391 6.07696C16.0579 5.91106 16.0673 5.74112 16.0767 5.57117C16.0907 5.3729 16.1565 5.32435 16.3867 5.31221C16.5464 5.30412 16.7014 5.27984 16.8611 5.26366C16.9879 5.24747 17.0067 5.17058 16.9973 5.07752C16.9738 4.83879 16.9269 4.59601 16.9363 4.36133C16.9597 3.77461 17.1195 3.21622 17.5375 2.73066C17.8522 2.36649 18.2656 2.15609 18.8011 2.15204C18.8903 2.15204 18.9843 2.20059 19.0735 2.22082C19.144 2.23701 19.2191 2.2451 19.2943 2.25724C19.3084 2.19249 19.3507 2.11967 19.3272 2.06302C19.1252 1.54914 19.2285 1.06763 19.5527 0.622533C19.966 0.0520022 20.9055 -0.206961 21.6571 0.193624C21.8168 0.278597 21.9812 0.359513 22.1503 0.436393C22.2677 0.488995 22.3382 0.549697 22.3523 0.683225C22.3664 0.849124 22.4791 1.00694 22.4979 1.16879C22.5214 1.36706 22.5167 1.57746 22.4697 1.77169C22.4509 1.85261 22.2912 1.94162 22.1785 1.9659C21.9577 2.01446 21.9389 2.12776 21.9718 2.27747C21.9906 2.38673 22.0187 2.47574 22.0563 2.61331ZM23.9822 4.59197C24.0057 4.60006 24.0339 4.60815 24.0574 4.61625C24.2547 4.36537 24.4613 4.1226 24.6351 3.85959C24.6774 3.79484 24.6351 3.64918 24.5741 3.58039C24.5318 3.53183 24.3815 3.52778 24.2922 3.54801C24.203 3.57229 24.0621 3.60466 24.1231 3.75033C24.1325 3.77461 24.0668 3.83126 24.0198 3.85959C23.9399 3.90814 23.8413 3.93646 23.7755 3.98906C23.7286 4.02548 23.6816 4.1145 23.7004 4.15092C23.7802 4.30468 23.8836 4.4463 23.9822 4.59197Z" fill="white"/>
</svg>
