<svg width="191" height="24" viewBox="0 0 191 24" fill="none" xmlns="http://www.w3.org/2000/svg">
<path d="M56.4785 12.08L70.6771 23.5487H59.1491L48.6034 15.0593H44.3033V23.5487H42.8452L36.6192 16.8753L36.6153 6.57353H36.3112L30.744 0.607605H44.3033V9.02043H48.7359L59.1491 0.607605H70.6771L56.4785 12.08Z" fill="white"/>
<path d="M40.7668 23.4032H6.73717C4.60476 23.4032 2.94751 22.928 1.76928 21.9739C0.587185 21.0199 0 19.8283 0 18.399V0.754944H8.39828V17.445H27.3311V0.754944H28.7759L29.3206 1.33816L34.9452 7.34312V17.4882H35.3276V17.5962L35.5633 17.8482L40.7668 23.4032Z" fill="white"/>
<path d="M76.0462 10.2316C76.4361 10.5342 76.8961 10.5342 77.3406 10.5342H86.4827V8.85312H85.0558V0.578857H82.857V8.85312H78.3074C78.1826 8.85312 77.9175 8.85312 77.8162 8.73643C77.7382 8.6562 77.7499 8.45928 77.7538 8.31707C77.7538 8.27695 77.7577 8.23684 77.7577 8.20037V0.578857H75.5589V9.00629C75.5589 9.39648 75.6135 9.88513 76.0462 10.2316Z" fill="white"/>
<path d="M88.6844 10.5341H95.5692V8.85301H89.889C89.6434 8.85301 89.3939 8.84572 89.2964 8.75456C89.2457 8.71444 89.1912 8.59775 89.1912 8.46647V6.2967H95.3587V4.6156H89.1912V2.76674C89.1912 2.63911 89.1912 2.4823 89.3159 2.37655C89.4329 2.27809 89.6044 2.26715 89.7721 2.26715H95.5108V0.582397H88.7155C88.2321 0.582397 87.7331 0.633452 87.3783 0.994472C87.1405 1.24609 86.9924 1.66545 86.9924 2.08482V8.98065C86.9924 9.41825 87.0431 9.86679 87.4173 10.2023C87.7877 10.5341 88.2243 10.5341 88.6844 10.5341Z" fill="white"/>
<path d="M98.8686 6.25293H104.042V10.5341H106.241V0.578735H104.042V4.56818H98.8686V0.578735H96.6698V10.5341H98.8686V6.25293Z" fill="white"/>
<path d="M106.747 2.26349H110.805V10.5341H113.008V2.26349H117.078V0.578735H106.747V2.26349Z" fill="white"/>
<path d="M119.784 7.08802H124.54C125.172 7.08802 125.792 6.90204 126.205 6.58843C126.844 6.09978 127.156 5.19906 127.156 3.83156C127.156 2.94542 127.063 1.84777 126.334 1.19502C125.659 0.578736 124.735 0.578735 124.186 0.578735H119.234C118.681 0.578735 118.268 0.71366 117.975 0.987159C117.585 1.35182 117.585 1.77848 117.585 2.15044V10.5341H119.784V7.08802ZM124.899 3.82062C124.899 4.05036 124.899 4.74687 124.587 5.08236C124.279 5.40691 123.811 5.40691 123.398 5.40691H119.784V2.73391C119.784 2.58075 119.784 2.44582 119.882 2.35466C119.983 2.25984 120.108 2.25984 120.225 2.26349H123.425C123.69 2.26349 124.24 2.26349 124.56 2.56252C124.899 2.89072 124.899 3.59088 124.899 3.82062Z" fill="white"/>
<path d="M80.1659 18.4111C80.1659 18.2251 80.4271 17.9662 80.6805 17.7401L85.386 13.5574H82.6142L78.6376 17.2332C78.1152 17.7219 78.0372 18.1813 78.0372 18.4111C78.0372 18.6663 78.1347 19.1769 78.7897 19.7458L83.1054 23.5164H85.9474L80.7935 19.2206C80.5908 19.0456 80.1659 18.6882 80.1659 18.4111Z" fill="white"/>
<path d="M77.7577 13.5574H75.5589V23.5128H77.7577V13.5574Z" fill="white"/>
<path d="M94.3935 13.4477C93.5865 13.4477 93.103 13.7467 92.5533 14.5855L88.3624 21.0109C88.3468 21.0364 88.3312 21.0619 88.3156 21.0911C88.2805 21.1495 88.2142 21.2589 88.183 21.2625C88.1713 21.2625 88.1635 21.2625 88.1596 21.2589C88.1246 21.226 88.1245 21.0765 88.1245 20.9744L88.1713 13.5608H85.9686V21.8496C85.9686 22.3383 85.9686 23.6292 87.6177 23.6292C88.7327 23.6292 89.0836 23.0968 89.3682 22.6592L93.6488 16.1937L93.7229 16.077C93.7892 15.9712 93.8905 15.8144 93.9295 15.7962C93.9373 15.8035 93.9607 15.8399 93.9607 16.0077L93.9022 23.5161H96.1049V15.3112C96.1049 14.0749 95.5279 13.4477 94.3935 13.4477Z" fill="white"/>
<path d="M104.68 17.6307H99.85V15.7271C99.85 15.6177 99.85 15.4135 99.9513 15.3297C100.06 15.2494 100.275 15.2421 100.427 15.2421H106.641V13.5574H99.1794C98.5868 13.5574 98.2321 13.7725 98.0371 13.9549C97.6863 14.2976 97.6473 14.7644 97.6473 15.089V22.1124C97.6473 22.4078 97.6824 22.7871 97.9592 23.0897C98.2204 23.3742 98.6024 23.5164 99.0897 23.5164H104.708C105.78 23.5164 106.341 23.0934 106.583 22.8381C106.984 22.4078 107.175 21.6712 107.175 20.5808C107.175 19.5744 106.992 18.8596 106.614 18.4001C106.185 17.8823 105.554 17.6307 104.68 17.6307ZM104.918 20.5261V20.5626C104.918 20.847 104.918 21.3248 104.641 21.5873C104.38 21.8316 104.049 21.8316 103.702 21.8316H100.509C100.31 21.8316 100.01 21.8353 99.9084 21.7004C99.8656 21.6384 99.8539 21.405 99.8539 21.219V19.3154H103.706C104.041 19.3154 104.392 19.3337 104.634 19.5488C104.895 19.7859 104.918 20.1469 104.918 20.5261Z" fill="white"/>
<path d="M110.735 21.7332C110.684 21.6931 110.629 21.5764 110.629 21.4414V19.2717H116.797V17.5906H110.629V15.7417C110.629 15.6141 110.629 15.4573 110.754 15.3515C110.871 15.2531 111.043 15.2421 111.21 15.2421H116.949V13.5574H110.154C109.67 13.5574 109.171 13.6084 108.816 13.9694C108.579 14.2211 108.43 14.6404 108.43 15.0598V21.9556C108.43 22.3932 108.481 22.8418 108.855 23.1773C109.234 23.5127 109.666 23.5128 110.126 23.5128H117.011V21.8316H111.331C111.082 21.8316 110.832 21.8244 110.735 21.7332Z" fill="white"/>
<path d="M124.707 13.5574H119.756C119.202 13.5574 118.789 13.6923 118.497 13.9658C118.107 14.3305 118.107 14.7571 118.107 15.1291V23.5128H120.306V20.063H125.062C125.693 20.063 126.313 19.877 126.727 19.5634C127.366 19.0748 127.678 18.174 127.678 16.8065C127.678 15.9204 127.584 14.8228 126.855 14.1664C126.181 13.5574 125.257 13.5574 124.707 13.5574ZM125.421 16.7993C125.421 17.029 125.421 17.7255 125.109 18.061C124.801 18.3855 124.333 18.3856 123.92 18.3856H120.306V15.7162C120.306 15.563 120.306 15.4281 120.403 15.3369C120.505 15.2421 120.629 15.2421 120.746 15.2458H123.947C124.212 15.2458 124.762 15.2458 125.081 15.5448C125.421 15.873 125.421 16.5695 125.421 16.7993Z" fill="white"/>
<path d="M131.362 20.9528C131.046 20.486 130.891 19.7312 130.891 18.6481C130.891 17.452 131.074 16.6169 131.452 16.0955C132.017 15.3041 132.941 15.2421 134.087 15.2421H137.464V13.5574H133.167C131.612 13.5574 130.438 13.984 129.674 14.8191C128.758 15.822 128.633 17.3317 128.633 18.6736C128.633 19.9208 128.762 21.332 129.721 22.3349C130.727 23.3888 132.146 23.5128 133.124 23.5128H137.627V21.8316H133.986C132.941 21.8316 131.904 21.7259 131.362 20.9528Z" fill="white"/>
<path d="M146.559 13.5574H140.403C139.885 13.5574 139.542 13.5829 139.148 13.9366C138.758 14.2867 138.723 14.6623 138.723 14.9905V23.5164H140.922V15.7162C140.922 15.5375 140.957 15.3953 141.023 15.3333C141.109 15.2421 141.23 15.2421 141.37 15.2458H145.545H145.58C145.697 15.2458 145.846 15.2421 145.939 15.3369C146.025 15.4172 146.025 15.5557 146.025 15.6797V23.52H148.224V14.9942C148.224 14.6805 148.177 14.2794 147.818 13.9439C147.413 13.5574 146.941 13.5574 146.559 13.5574Z" fill="white"/>
<path d="M159.176 14.5089C158.01 13.4477 156.166 13.4477 154.946 13.4477C153.664 13.4477 151.909 13.4477 150.716 14.5089C149.57 15.5227 149.477 17.1199 149.477 18.5385C149.477 19.6288 149.476 21.4521 150.716 22.568C151.894 23.6292 153.73 23.6292 154.946 23.6292C156.1 23.6292 158.026 23.6292 159.176 22.568C160.385 21.4521 160.385 19.41 160.385 18.5385C160.389 17.1783 160.252 15.4971 159.176 14.5089ZM152.377 15.9092C152.997 15.1908 153.94 15.1288 154.931 15.1288C155.897 15.1288 156.892 15.1872 157.5 15.9056C157.929 16.4088 158.127 17.2475 158.127 18.5348C158.127 19.7929 157.921 20.6462 157.5 21.1495C156.845 21.9408 155.695 21.9408 154.935 21.9408C153.703 21.9408 152.931 21.8132 152.381 21.1495C151.937 20.617 151.738 19.8111 151.738 18.5348C151.734 17.222 151.929 16.4343 152.377 15.9092Z" fill="white"/>
<path d="M168.236 13.5574H163.285C162.731 13.5574 162.318 13.6923 162.025 13.9658C161.635 14.3305 161.635 14.7571 161.635 15.1291V23.5128H163.834V20.063H168.591C169.222 20.063 169.842 19.877 170.255 19.5634C170.895 19.0748 171.206 18.174 171.206 16.8065C171.206 15.9204 171.113 14.8228 170.384 14.1664C169.713 13.5574 168.789 13.5574 168.236 13.5574ZM168.949 16.7993C168.949 17.029 168.949 17.7255 168.637 18.061C168.329 18.3855 167.861 18.3856 167.448 18.3856H163.834V15.7162C163.834 15.563 163.834 15.4281 163.932 15.3369C164.033 15.2421 164.158 15.2421 164.275 15.2458H167.476C167.741 15.2458 168.29 15.2458 168.61 15.5448C168.949 15.873 168.949 16.5695 168.949 16.7993Z" fill="white"/>
<path d="M181.452 13.5574H171.121V15.2421H175.179V23.5164H177.382V15.2421H181.452V13.5574Z" fill="white"/>
<path d="M187.004 14.6146C186.618 13.765 186.127 13.4477 185.183 13.4477C184.216 13.4477 183.76 13.7431 183.363 14.6146L179.367 23.5161H181.694L182.751 21.0546H187.6L188.673 23.5161H191L187.004 14.6146ZM185.008 15.6868C185.09 15.4971 185.148 15.3914 185.179 15.3768C185.218 15.3914 185.281 15.4971 185.363 15.6868L187.004 19.5194H183.359L185.004 15.7086L185.008 15.6868Z" fill="white"/>
<path d="M20.1085 2.33823C20.266 2.31289 20.4152 2.28754 20.5603 2.25858C20.6266 2.2441 20.6929 2.20428 20.7551 2.2079C20.9872 2.21876 21.0286 2.08842 21.0494 1.93275C21.0535 1.8893 21.0825 1.84586 21.1032 1.80242C21.1198 1.80604 21.1364 1.80603 21.153 1.80965C21.1571 1.8531 21.1613 1.90016 21.1696 1.94361C21.1779 1.97981 21.1861 2.04136 21.2027 2.04498C21.3685 2.07756 21.4555 2.22962 21.6628 2.226C22.873 2.21152 24.0791 2.21876 25.2894 2.21876C25.3971 2.21876 25.5422 2.17893 25.5422 2.34909C25.5422 2.35995 25.6002 2.38891 25.6085 2.38167C25.6375 2.35995 25.6707 2.33099 25.6748 2.30202C25.6831 2.14997 25.6748 1.99792 25.679 1.84586C25.679 1.80966 25.7121 1.77345 25.7329 1.73724C25.7577 1.77345 25.795 1.80604 25.8033 1.84586C25.8157 1.91465 25.8075 1.98705 25.8033 2.05584C25.795 2.21514 25.8033 2.36357 26.0561 2.33099C26.0893 2.58442 26.0893 2.58442 26.3753 2.58442C26.6281 2.58442 26.8975 2.62786 27.1338 2.57355C27.3783 2.51925 27.6021 2.58804 27.8342 2.55908C27.9171 2.54822 28 2.55546 28 2.66045C27.9959 2.76182 27.9295 2.78354 27.8259 2.77992C27.3742 2.76181 26.9224 2.74371 26.4665 2.73647C26.3173 2.73285 26.1639 2.7763 26.0147 2.78354C25.8821 2.79078 25.7494 2.7763 25.5919 2.76906C25.5836 2.9899 25.3806 2.94646 25.2065 2.94284C24.8293 2.94284 24.448 2.93922 24.0708 2.94284C23.8719 2.94284 23.7103 2.97542 23.6066 3.16006C23.5445 3.2723 23.387 3.3447 23.2834 3.44607C23.2378 3.48951 23.188 3.55468 23.1963 3.60536C23.2253 3.81173 23.2668 4.02172 23.3248 4.22446C23.358 4.33669 23.3538 4.39823 23.2046 4.41995C22.9684 4.45616 23.0057 4.65528 22.9476 4.78924C22.8896 4.93043 22.9103 5.11869 22.8067 5.21644C22.587 5.4228 22.3342 5.63278 22.0441 5.74501C21.8659 5.8138 21.5799 5.74502 21.3685 5.67261C21.0245 5.56038 20.7012 5.39384 20.3655 5.25265C20.2826 5.21644 20.2039 5.18385 20.1085 5.14403C20.0878 5.21282 20.0795 5.25988 20.0588 5.30333C19.98 5.45176 19.98 5.55676 20.1914 5.63278C20.3696 5.69433 20.4277 5.86086 20.4194 6.01292C20.3945 6.47633 20.3613 6.93975 20.3033 7.39953C20.2867 7.53349 20.1831 7.67468 20.0795 7.7833C20.0381 7.83036 19.8889 7.8376 19.8018 7.81588C19.5863 7.76881 19.5034 7.84122 19.5117 8.0331C19.5241 8.34446 19.7148 8.5653 19.9344 8.78253C20.3862 9.23145 20.6639 9.76727 20.9167 10.3176C21.0121 10.5275 21.1032 10.7412 21.1944 10.9511C21.2027 10.9656 21.2069 10.9837 21.2193 10.9946C21.5923 11.3385 21.555 11.7621 21.5136 12.1821C21.4804 12.5405 21.4224 12.8989 21.3809 13.2609C21.3685 13.3877 21.3644 13.5216 21.3892 13.6483C21.4431 13.9018 21.4431 14.1407 21.2815 14.3652C21.2649 14.3869 21.2566 14.4159 21.2566 14.4412C21.2525 14.691 21.2317 14.9408 21.2649 15.187C21.2815 15.3209 21.3809 15.4549 21.468 15.5744C21.7125 15.9074 22.0524 16.1355 22.4959 16.2478C22.6699 16.2912 22.7694 16.4034 22.7445 16.5808C22.728 16.6786 22.6824 16.7365 22.5705 16.7329C21.9985 16.7293 21.4182 16.8125 20.8587 16.6279C20.7509 16.5917 20.6266 16.5953 20.5106 16.5917C20.4484 16.5881 20.3862 16.6026 20.324 16.6062C19.8225 16.6496 19.6941 16.5229 19.8516 16.1066C20.0381 15.6106 20.0837 15.111 20.0173 14.5969C20.0132 14.5824 20.0173 14.5607 20.009 14.5498C19.6982 14.0429 19.7272 13.4745 19.6402 12.9279C19.6153 12.7794 19.636 12.6382 19.7645 12.5188C19.8018 12.4862 19.8101 12.421 19.8184 12.3703C19.835 12.2798 19.8267 12.1857 19.8598 12.0988C19.9179 11.9286 19.7894 11.8237 19.6941 11.7114C19.6775 11.6897 19.607 11.6933 19.5614 11.6969C19.3169 11.7295 19.1304 11.668 18.9895 11.4797C18.7283 11.1249 18.4548 10.7774 18.1812 10.4298C18.1439 10.3791 18.0652 10.314 18.0155 10.3212C17.7212 10.3465 17.6134 10.1764 17.5098 9.98811C17.4932 9.95553 17.4684 9.92656 17.4476 9.89398C17.4228 9.90122 17.3938 9.90122 17.3896 9.91209C17.2363 10.1293 17.058 10.3393 16.942 10.571C16.7638 10.9186 16.5607 11.2625 16.5317 11.6535C16.5192 11.8128 16.4529 11.9467 16.2788 12.0228C16.254 12.0336 16.225 12.0517 16.2084 12.0735C16.0094 12.3414 15.8105 12.6057 15.6198 12.8772C15.5908 12.917 15.5701 12.9713 15.5784 13.0148C15.6571 13.3442 15.5038 13.6266 15.3587 13.9126C15.2219 14.1878 15.1059 14.4702 14.9608 14.7453C14.9194 14.825 14.8158 14.8793 14.7412 14.9408C14.708 14.9698 14.65 14.9879 14.6334 15.0204C14.5339 15.2304 14.4096 15.4368 14.364 15.654C14.3143 15.8821 14.3391 16.1247 14.3474 16.36C14.3516 16.4541 14.4096 16.5446 14.4427 16.6351C14.5173 16.8596 14.4427 16.9827 14.1899 16.9936C13.8874 17.008 13.5848 16.9936 13.2864 16.9936C13.0833 16.9936 13.0294 16.885 13.0087 16.7329C12.9672 16.4288 13.0833 16.1464 13.1662 15.8568C13.2491 15.5599 13.3444 15.263 13.419 14.9625C13.4356 14.8974 13.3983 14.8213 13.3776 14.7489C13.3112 14.5172 13.3071 14.2855 13.4439 14.0755C13.6097 13.8221 13.7299 13.5651 13.7713 13.2609C13.8045 13.0292 13.9868 12.8084 14.1195 12.5875C14.2438 12.3812 14.3889 12.1821 14.5339 11.9829C14.6541 11.8128 14.6997 11.6499 14.6666 11.4363C14.6292 11.1973 14.6873 10.9439 14.7246 10.6977C14.766 10.4262 14.8365 10.1583 14.8904 9.88674C14.8987 9.85416 14.8945 9.82158 14.8862 9.78899C14.8406 9.64418 14.7287 9.4885 14.7536 9.35454C14.7867 9.16628 14.6914 8.98888 14.737 8.80786C14.766 8.69201 14.7826 8.56892 14.9691 8.55806C14.994 8.55806 15.0354 8.48203 15.0313 8.44582C15.0023 8.16705 14.9525 7.89191 14.9277 7.61314C14.9069 7.38867 14.8945 7.16059 14.9069 6.9325C14.9111 6.86733 15.0189 6.79855 15.0852 6.74062C15.1266 6.70442 15.1846 6.68632 15.2758 6.63925C15.1059 6.59943 14.9898 6.55599 14.8655 6.5415C14.708 6.5234 14.679 6.44375 14.6914 6.32428C14.7287 6.02741 14.766 5.73415 14.7992 5.43728C14.8158 5.28884 14.8241 5.13679 14.8323 4.98473C14.8448 4.80733 14.9028 4.76389 15.1059 4.75303C15.2468 4.74579 15.3836 4.72407 15.5245 4.70959C15.6364 4.69511 15.653 4.62631 15.6447 4.54304C15.624 4.32944 15.5825 4.11222 15.5908 3.90224C15.6115 3.37728 15.7525 2.87767 16.1213 2.44322C16.399 2.11739 16.7638 1.92913 17.2363 1.92551C17.315 1.92551 17.3979 1.96895 17.4766 1.98705C17.5388 2.00153 17.6051 2.00877 17.6714 2.01963C17.6839 1.96171 17.7212 1.89655 17.7005 1.84586C17.5222 1.38607 17.6134 0.955246 17.8994 0.557003C18.2641 0.0465283 19.0931 -0.185176 19.7562 0.173243C19.8971 0.249271 20.0422 0.32167 20.1914 0.390457C20.295 0.437522 20.3572 0.491834 20.3696 0.611307C20.3821 0.759743 20.4815 0.900942 20.4981 1.04576C20.5188 1.22316 20.5147 1.41141 20.4733 1.58519C20.4567 1.6576 20.3158 1.73724 20.2163 1.75896C20.0215 1.80241 20.0049 1.90379 20.0339 2.03774C20.0505 2.13549 20.0754 2.21513 20.1085 2.33823ZM21.8078 4.1086C21.8286 4.11584 21.8534 4.12308 21.8742 4.13032C22.0482 3.90586 22.2306 3.68864 22.384 3.45331C22.4213 3.39539 22.384 3.26505 22.3301 3.20351C22.2928 3.16006 22.1601 3.15643 22.0814 3.17454C22.0026 3.19626 21.8783 3.22522 21.9322 3.35556C21.9405 3.37728 21.8824 3.42797 21.841 3.45331C21.7705 3.49676 21.6835 3.52209 21.6255 3.56916C21.584 3.60174 21.5426 3.6814 21.5592 3.71398C21.6296 3.85156 21.7208 3.97827 21.8078 4.1086Z" fill="white"/>
</svg>
