<svg xmlns="http://www.w3.org/2000/svg" viewBox="0 0 124.95 40.557" fill="none">
  
  <path d="M 0 0 L 14.984 0 L 14.984 29.888 L 48.763 29.888 L 48.763 0 L 51.34 0 L 52.312 1.044 L 62.347 11.798 L 62.347 29.965 L 63.03 29.965 L 63.03 30.159 L 63.45 30.61 L 72.734 40.557 L 12.02 40.557 C 8.216 40.557 5.259 39.706 3.157 37.998 C 1.048 36.29 0 34.156 0 31.596 L 0 0 Z" fill="#fff"></path>
  <g transform="translate(54.352,0)">
    <path d="M 45.496 20.282 L 70.597 40.557 L 50.217 40.557 L 31.573 25.549 L 23.971 25.549 L 23.971 40.557 L 21.394 40.557 L 10.387 28.76 L 10.38 10.547 L 9.842 10.547 L 0 0 L 23.971 0 L 23.971 14.873 L 31.808 14.873 L 50.217 0 L 70.597 0 L 45.496 20.282 Z" fill="#fff"></path>
  </g>
</svg>